<?xml version="1.0" encoding="UTF-8"?>
<!DOCTYPE svg PUBLIC "-//W3C//DTD SVG 1.1//EN" "http://www.w3.org/Graphics/SVG/1.1/DTD/svg11.dtd">
<!-- Creator: CorelDRAW 2019 (64-Bit) -->
<svg xmlns="http://www.w3.org/2000/svg" xml:space="preserve" width="1.9685in" height="0.393701in" version="1.1" style="shape-rendering:geometricPrecision; text-rendering:geometricPrecision; image-rendering:optimizeQuality; fill-rule:evenodd; clip-rule:evenodd"
viewBox="0 0 1968.5 393.7"
 xmlns:xlink="http://www.w3.org/1999/xlink">
 <defs>
  <style type="text/css">
   <![CDATA[
    .fil0 {fill:#FEFEFE;fill-rule:nonzero}
   ]]>
  </style>
 </defs>
 <g id="Capa_x0020_1">
  <metadata id="CorelCorpID_0Corel-Layer"/>
  <path class="fil0" d="M91.94 347l-0.47 0c-3.57,0 -6.69,-1.2 -9.33,-3.58 -2.69,-2.33 -4.04,-5.5 -4.04,-9.33 0,-3.52 1.14,-6.58 3.42,-9.18 2.28,-2.59 5.29,-4.04 9.02,-4.3l15.97 -0.93 -5.34 -240.87c-20.32,2.59 -32.2,3.94 -35.52,3.94 -3.37,0 -6.33,-1.09 -8.97,-3.21 -3.06,-2.54 -4.56,-5.76 -4.56,-9.7 0,-3.47 1.09,-6.48 3.27,-9.07 2.18,-2.54 5.13,-4.05 8.87,-4.46 14.83,-1.4 30.07,-3.27 45.73,-5.49 0.41,-0.11 0.88,-0.16 1.4,-0.16 26.59,-3.73 42.15,-5.6 46.61,-5.6 3.32,0 6.33,1.09 8.97,3.22 2.9,2.59 4.41,5.91 4.41,9.85 0,3.37 -1.09,6.33 -3.27,8.87 -2.18,2.59 -5.08,4.09 -8.76,4.51 -10.42,0.98 -21.05,2.23 -31.88,3.63l-1.98 243.22 15.66 -1.09c3.52,0 6.63,1.14 9.28,3.37 2.8,2.59 4.25,5.81 4.25,9.54 0,3.52 -1.14,6.63 -3.42,9.17 -2.28,2.59 -5.24,4.05 -8.92,4.36 -3.63,0.31 -7.52,0.62 -11.67,0.88l-8.34 0.47c-9.75,0.72 -19.86,1.4 -30.39,1.97l0 -0.02zm372.68 -31.58c-2.54,0 -4.88,-1.09 -6.95,-3.26 -2.07,-2.18 -3.11,-5.44 -3.11,-9.8l-3.78 -209.15c0,-3.68 1.3,-6.79 3.89,-9.33 2.59,-2.59 5.7,-3.89 9.33,-3.89 3.63,0 6.74,1.3 9.33,3.89 2.59,2.54 3.89,5.65 3.89,9.33l0 5.6c23.9,-14.78 45.21,-22.19 63.93,-22.19 14.1,0 26.33,4.35 36.76,13.06 10.42,8.71 18.04,21.41 22.81,38.16 3.84,13.38 5.76,27.38 5.76,42.05 0,3.78 -0.37,11.3 -1.14,22.66 -0.78,11.35 -4.46,25.09 -11.15,41.22 -6.69,16.18 -15.81,28.52 -27.37,37.02 -7.88,5.86 -16.8,8.81 -26.7,8.81 -21.35,0 -42.98,-12.75 -64.85,-38.16l-0.78 60.93c0,4.35 -1.04,7.62 -3.11,9.8 -2.07,2.18 -4.3,3.26 -6.74,3.26l-0.01 -0.01zm66.21 -58.33c10.11,0 19.07,-4.67 26.91,-14.05 7.78,-9.38 13.58,-21.98 17.43,-37.9 2.75,-11.56 4.15,-23.18 4.15,-34.94 0,-4.46 -0.52,-11.83 -1.45,-22.19 -0.98,-10.32 -5.19,-21.1 -12.7,-32.41 -7.46,-11.3 -18.4,-17.42 -32.81,-18.3l-1.97 0c-15.09,0 -32.92,6.9 -53.46,20.64l-1.24 97.83c19.55,27.53 37.96,41.32 55.17,41.32l-0.03 0zm309.89 45.57l-0.57 0c-18.15,0 -32.2,-5.03 -42.1,-15.04 -12.86,-12.85 -19.29,-30.17 -19.29,-51.95 0,-10.42 2.13,-22.04 6.33,-34.89 4.2,-12.81 12.08,-24.16 23.59,-34.06 10.94,-9.44 24.63,-14.15 41.01,-14.15l2.59 0c14.26,1.14 25.81,6.69 34.63,16.75 12.65,14.67 18.98,33.28 18.98,55.89 0,8.19 -1.4,17.94 -4.25,29.29 -2.85,11.36 -9.39,21.99 -19.6,31.89 -10.21,9.95 -24,15.35 -41.31,16.28l-0.01 -0.01zm9.13 -22.5c9.33,0 17.31,-3.06 24.01,-9.17 6.69,-6.12 11.35,-14.88 14,-26.19 1.4,-6.28 2.13,-12.7 2.13,-19.18 0,-5.03 -0.78,-11.83 -2.23,-20.33 -1.45,-8.5 -5.29,-16.74 -11.56,-24.78 -6.22,-7.98 -14.36,-12.03 -24.52,-12.13 -12.24,0.94 -22.3,6.43 -30.23,16.54 -7.88,10.16 -12.86,22.04 -14.88,35.72 -0.52,3.63 -0.73,7.2 -0.73,10.78 0,26.91 12.08,42.98 36.3,48.17 2.7,0.37 5.29,0.57 7.72,0.57l-0.02 0zm91 73.37c-6.38,0 -11.78,-2.28 -16.18,-6.85 -4.41,-4.51 -6.58,-9.95 -6.58,-16.23 0,-6.27 2.18,-11.72 6.58,-16.33 4.41,-4.61 9.8,-6.89 16.18,-6.89 6.37,0 11.77,2.28 16.17,6.89 4.41,4.61 6.63,10.06 6.63,16.33 0,6.28 -2.22,11.72 -6.63,16.23 -4.41,4.57 -9.8,6.85 -16.17,6.85zm127.8 5.81c-5.91,0 -9.75,-1.5 -11.56,-4.41 -0.93,-1.45 -1.35,-2.85 -1.35,-4.25 0,-6.12 4.46,-9.54 13.48,-10.37 16.8,-1.29 26.7,-15.14 29.65,-41.42 -12.29,10.11 -26.24,15.19 -41.94,15.19l-3.94 -0.15c-18.67,-1.25 -34.58,-6.95 -47.8,-17.11 -13.22,-10.17 -22.97,-22.66 -29.35,-37.43 -5.08,-11.56 -7.62,-23.18 -7.62,-34.95 0,-3.11 0.52,-9.23 1.61,-18.2 1.04,-9.02 7.11,-18.87 18.15,-29.5 11.04,-10.63 27.37,-16.91 49.05,-18.82 2.44,-0.2 4.87,-0.31 7.31,-0.31 13.63,0 26.6,2.69 38.89,8.04l-1.66 -6.53c-0.31,-1.19 -0.46,-2.33 -0.46,-3.32 0,-2.43 0.73,-4.93 2.28,-7.46 1.5,-2.54 4.1,-4.3 7.72,-5.29 1.25,-0.31 2.39,-0.46 3.53,-0.46 2.28,0 4.72,0.72 7.26,2.18 2.54,1.5 4.3,4.05 5.34,7.68 3.63,13.17 7.42,30.28 11.35,51.38 0.52,1.71 0.78,3.22 0.78,4.56 3.94,22.56 5.91,42.98 5.91,61.18 0,13.07 -1.3,26.28 -3.94,39.56 -2.64,13.32 -8.19,24.73 -16.64,34.27 -8.45,9.54 -20.48,14.83 -36.04,15.97l-0.01 -0.03zm-5.03 -67.61c6.07,0 12.54,-1.56 19.44,-4.61 6.9,-3.11 12.39,-10.01 16.54,-20.74 -1.71,-26.03 -5.03,-50.34 -10.01,-72.94 -10.06,-7.67 -23.17,-11.51 -39.5,-11.51 -5.65,0 -11.36,0.57 -17.01,1.81 -25.61,6.17 -38.42,20.01 -38.42,41.48 0,4.35 1.19,10.68 3.57,19.03 2.39,8.4 8.56,17.42 18.61,27.22 10.01,9.75 22.14,16.17 36.45,19.19 3.53,0.72 6.95,1.09 10.32,1.09l0.02 -0.01zm360.5 42.36c-2.33,0 -4.77,-0.72 -7.31,-2.18 -2.54,-1.45 -4.3,-4.04 -5.34,-7.67l-41.58 -156.63 -25.41 124.11c-1.61,7.46 -5.03,11.25 -10.31,11.25 -1.92,0 -3.69,-0.77 -5.29,-2.28 -2.03,-1.92 -3.06,-4.77 -3.06,-8.51 0,-1.35 9.49,-63.61 28.41,-186.85 0.88,-5.65 4.2,-9.39 9.85,-11.25 1.24,-0.26 2.33,-0.41 3.37,-0.41 2.44,0 4.93,0.72 7.41,2.28 2.54,1.5 4.3,4.04 5.34,7.57l47.39 178.61c4.05,-13.95 10.06,-34.11 18.1,-60.51 7.98,-26.39 16.07,-52.2 24.26,-77.46 8.24,-25.3 14.72,-43.29 19.44,-54.02 1.24,-2.44 3.63,-4.67 7.15,-6.69 2.65,-1.5 5.29,-2.28 7.88,-2.28 0.94,0 2.49,0.26 4.72,0.78 4.46,0.83 11.61,38.78 21.41,113.91 4.04,31 8.66,61.85 13.84,92.5 0.21,1.24 0.31,2.39 0.31,3.53 0,3.94 -1.19,6.95 -3.52,8.97 -1.92,1.61 -4,2.44 -6.22,2.44 -1.19,0 -3.01,-0.47 -5.44,-1.3 -2.44,-0.88 -4.25,-4.15 -5.5,-9.8 -4.46,-24.63 -8.97,-49.15 -13.48,-73.52 -6.22,-32.51 -12.13,-65.22 -17.78,-98.15 -7.2,21.46 -14.88,47.18 -23.13,77.15 -8.19,30.02 -15.35,57.13 -21.57,81.5 -6.17,24.37 -9.75,38.89 -10.78,43.56 -0.98,5.44 -4.25,9.07 -9.7,10.89 -1.19,0.31 -2.38,0.46 -3.47,0.46l0.01 -0.01zm221.13 12.34c-9.54,0 -20.43,-1.76 -32.71,-5.19 -12.34,-3.42 -24.06,-10.83 -35.2,-22.08 -11.09,-11.3 -18.46,-26.19 -21.98,-44.59 -2.03,-12.76 -3.06,-25.98 -3.06,-39.67 0,-13.07 0.93,-26.54 2.75,-40.39 6.17,-43.24 15.45,-76.94 27.79,-101.16 12.44,-22.61 26.6,-37.33 42.36,-44.22 8.81,-3.73 17.63,-5.6 26.44,-5.6 7.1,0 16.38,1.87 27.94,5.7 11.56,3.78 24.11,12.55 37.69,26.34 13.53,13.79 24.37,29.81 32.4,48.17 8.04,18.3 12.08,37.07 12.08,56.2 0,0.31 -0.05,5.34 -0.15,15.19 -0.1,9.8 -5.81,23.11 -17.16,39.92 -11.35,16.8 -29.71,30.38 -55.11,40.7 -25.46,10.32 -59.31,15.66 -101.62,15.97 10.83,24.42 28.1,36.61 51.8,36.61 4.46,0 11.09,-0.98 19.86,-2.9 8.81,-1.92 18.61,-7.21 29.4,-15.92 10.78,-8.71 18.72,-19.13 23.8,-31.31 2.44,-5.55 6.48,-8.35 12.13,-8.35 1.71,0 3.47,0.37 5.19,1.09 3.42,1.4 5.81,3.74 7.15,6.95 0.68,1.76 1.04,3.47 1.04,5.19 0,1.61 -0.31,3.27 -0.93,5.03 -6.74,16.18 -16.69,28.98 -29.76,38.42 -18.09,13.27 -38.83,19.91 -62.11,19.91l-0.03 -0.01zm-62.73 -70.98c40.03,-1.3 71.39,-7.67 94.16,-19.13 38.83,-19.44 58.22,-48.27 58.22,-86.57 0,-3.11 -0.57,-10.06 -1.61,-20.84 -1.09,-10.78 -6.17,-23.85 -15.3,-39.15 -9.12,-15.3 -20.22,-26.86 -33.39,-34.79 -8.71,-5.13 -17.57,-7.72 -26.59,-7.72 -4.67,0 -11.61,1.35 -20.95,4.1 -9.33,2.75 -19.6,14.2 -30.85,34.48 -10.94,21.26 -19.19,51.9 -24.73,91.87 -1.76,13.07 -2.59,25.67 -2.59,37.69 0,16.39 1.19,29.76 3.63,40.08l-0 -0.01zm276.44 29.5c-19.44,0 -36.85,-6.17 -52.26,-18.56 -10.42,-8.3 -18.56,-19.81 -24.47,-34.63 -0.36,-0.99 -0.57,-1.97 -0.57,-2.85 0,-3.57 1.71,-5.96 5.13,-7.31 1.04,-0.42 1.97,-0.63 2.9,-0.63 3.52,0 6.02,1.76 7.42,5.19 3.99,9.64 10.11,17.21 18.4,22.76 11.93,8.14 24.98,12.19 39.2,12.19 14.98,0 24.32,-4.35 27.95,-13.07 0.62,-1.5 0.88,-3.11 0.88,-4.72 0,-4.77 -2.23,-10.42 -6.79,-17 -3.27,-4.15 -10.79,-10.73 -22.66,-19.75 -3.63,-2.65 -8.5,-6.22 -14.57,-10.79 -16.9,-11.82 -32.87,-24.42 -47.85,-37.69 -15.92,-14.67 -23.85,-30.12 -23.85,-46.3 0,-9.54 3.21,-19.02 9.59,-28.46 6.37,-9.49 16.95,-17.17 31.73,-23.02 9.12,-3.58 18.35,-5.34 27.79,-5.34 5.19,0 12.76,1.04 22.71,3.06 9.95,2.02 20.11,9.85 30.38,23.43 10.26,13.64 15.6,33.76 16.02,60.41 0,2.13 -0.78,3.99 -2.33,5.55 -1.61,1.56 -3.42,2.33 -5.55,2.33 -2.23,0 -4.09,-0.78 -5.65,-2.33 -1.5,-1.56 -2.28,-3.42 -2.28,-5.55 -0.36,-21.57 -4.46,-37.17 -12.13,-46.76 -7.67,-9.65 -16.96,-14.83 -27.79,-15.66 -1.5,-0.1 -3.11,-0.15 -4.72,-0.15 -9.23,0 -18.04,2.07 -26.44,6.22 -16.48,7.73 -24.73,16.9 -24.73,27.63 0,6.9 3.83,14.26 11.51,22.04l3.83 3.48c13.84,12.28 28.98,24.21 45.42,35.88l14.72 10.94c14.15,10.43 23.54,18.82 28.1,25.2 9.02,12.55 13.53,23.85 13.53,33.86 0,0.21 -0.05,2.91 -0.15,7.98 -0.1,5.13 -3.58,11 -10.37,17.58 -10.42,9.9 -24.42,14.88 -42.05,14.88l-0 -0.04zm-1557.71 26.5c-2.72,0 -5.56,-0.85 -8.53,-2.54 -2.96,-1.69 -5.02,-4.72 -6.23,-8.95l-48.51 -182.74 -29.64 144.81c-1.88,8.71 -5.87,13.13 -12.04,13.13 -2.24,0 -4.3,-0.91 -6.17,-2.66 -2.36,-2.24 -3.57,-5.57 -3.57,-9.92 0,-1.57 11.07,-74.22 33.15,-218 1.03,-6.59 4.9,-10.95 11.49,-13.12 1.45,-0.31 2.72,-0.49 3.93,-0.49 2.85,0 5.75,0.85 8.65,2.66 2.96,1.76 5.02,4.72 6.23,8.83l55.29 208.37c4.72,-16.27 11.74,-39.8 21.11,-70.59 9.32,-30.79 18.76,-60.92 28.31,-90.37 9.62,-29.52 17.18,-50.51 22.69,-63.03 1.45,-2.84 4.23,-5.44 8.35,-7.8 3.08,-1.76 6.17,-2.67 9.19,-2.67 1.09,0 2.91,0.31 5.5,0.91 5.2,0.97 13.55,45.25 24.98,132.89 4.72,36.17 10.1,72.17 16.15,107.91 0.24,1.46 0.37,2.79 0.37,4.12 0,4.59 -1.39,8.1 -4.12,10.46 -2.24,1.87 -4.65,2.84 -7.26,2.84 -1.39,0 -3.51,-0.54 -6.35,-1.52 -2.85,-1.03 -4.96,-4.84 -6.41,-11.43 -5.2,-28.73 -10.46,-57.34 -15.72,-85.78 -7.26,-37.93 -14.16,-76.09 -20.75,-114.5 -8.41,25.04 -17.36,55.04 -26.98,90.01 -9.56,35.02 -17.91,66.66 -25.16,95.09 -7.2,28.43 -11.37,45.37 -12.59,50.81 -1.15,6.35 -4.96,10.59 -11.31,12.7 -1.39,0.36 -2.78,0.54 -4.06,0.54l0.02 0.02zm330.9 -28.46c-1.04,0 -2.66,-0.38 -4.89,-1.14 -2.23,-0.71 -3.99,-3.71 -5.28,-8.89 -5.28,-28.42 -7.94,-57.93 -7.94,-88.59 0,-61.46 2.09,-94.06 6.27,-97.85 2.33,-2.14 5.09,-3.23 8.37,-3.23 3.52,0 6.37,1.24 8.6,3.71 2.24,2.47 3.38,5.32 3.38,8.56 0,1.95 -0.09,3.94 -0.29,5.99 24.76,-10.74 47.38,-16.16 67.78,-16.16l1 0c18.39,0.95 32.65,6.65 42.87,17.15 13.21,13.74 19.77,31.32 19.77,52.76 0,10.41 -2.19,21.91 -6.51,34.46 -4.37,12.59 -12.74,23.62 -25.09,33.08 -11.31,8.65 -25.47,12.98 -42.44,12.98 -13.93,0 -27.04,-3.57 -39.26,-10.6 11.98,17.35 23.96,28.42 36.03,33.13 3.09,1.24 6.18,1.81 9.36,1.81 3.8,0 7.65,-0.86 11.55,-2.61 2.33,-1.05 4.47,-1.57 6.41,-1.57 2.14,0 4.04,0.62 5.7,1.81 2.94,2.05 4.42,4.9 4.42,8.51 0,0.09 -0.05,1.09 -0.09,3 -0.09,1.9 -2.47,4.13 -7.13,6.61 -7.89,3.52 -15.5,5.32 -22.81,5.32 -3.99,0 -9.65,-1 -16.92,-2.99 -7.32,-2 -15.49,-7.08 -24.67,-15.26 -9.13,-8.17 -17.16,-17.35 -24,-27.57 0.71,11.6 2.24,22.86 4.46,33.84 0.15,1.19 0.24,2.28 0.24,3.32 0,3.61 -0.95,6.28 -2.9,7.94 -1.95,1.67 -3.94,2.52 -5.99,2.52l0 -0.03zm55.7 -65.59c1.57,0 3.19,-0.09 4.85,-0.28 16.63,-1.85 29.51,-8.13 38.74,-18.82 10.64,-12.31 16.02,-26.46 16.02,-42.44 0,-11.17 -3.33,-21.72 -9.98,-31.75 -6.61,-10.03 -18.06,-16.2 -34.31,-18.54 -3.04,-0.29 -6.13,-0.43 -9.17,-0.43 -7.61,0 -16.2,1.04 -25.76,3.13 -9.55,2.09 -19.2,5.28 -28.85,9.55l-0.95 15.88c-1.05,14.69 -1.85,29.46 -2.52,44.44 1.47,0.81 2.62,2.09 3.33,3.76 5.51,13.16 13.07,22.57 22.72,28.23 8.17,4.85 16.78,7.27 25.9,7.27l-0.02 -0.01zm603.03 52.87c-5.31,0 -9.72,-2.01 -13.15,-6.09 -2.53,-3.05 -3.76,-6.54 -3.76,-10.63l0 -0.58c-30.65,6.61 -55.87,9.91 -75.57,9.91l-15.75 0c-10.18,0 -20.09,-2.39 -29.81,-7.26 -13.28,-6.67 -19.96,-15.55 -19.96,-26.57 0,-12.25 7.07,-23.98 21.26,-35.13 12.9,-9.98 30.52,-17.43 52.81,-22.35 10.63,-2.39 21.91,-3.63 33.96,-3.63 13.16,0 27.09,1.43 41.8,4.34 -0.26,-3.63 -0.78,-7.13 -1.56,-10.43 -1.62,-6.55 -4.93,-10.37 -9.85,-11.41 -2.07,-0.45 -4.21,-0.71 -6.48,-0.71 -3.56,0 -7.39,0.58 -11.6,1.69 -7.45,1.75 -14.32,4.28 -20.67,7.58 -2.53,1.17 -5.06,1.75 -7.58,1.75 -6.61,0 -11.47,-2.98 -14.65,-8.95 -1.1,-2.52 -1.68,-5.05 -1.68,-7.58 0,-6.61 2.98,-11.47 8.94,-14.65 8.62,-4.41 18.02,-7.91 28.26,-10.43 6.22,-1.62 12.38,-2.47 18.41,-2.47 5.06,0 10.11,0.59 15.03,1.69 12.64,2.78 22.49,10.56 29.62,23.39 4.93,9.85 7.39,23.79 7.39,41.74 0,6.35 -0.65,15.49 -2.01,27.48 -1.3,11.93 -3.18,23.72 -5.57,35.39l-1.68 9.65c-0.78,4.73 -2.92,8.36 -6.48,11.02 -2.92,2.14 -6.16,3.24 -9.66,3.24l-0.01 0.01zm-94.56 -27.15c2.01,0 8.24,-0.06 18.8,-0.26 10.5,-0.19 31.3,-3.89 62.41,-11.15 2.33,-11.73 4.02,-24.82 5.19,-39.08l-1.36 -0.2c-14.46,-3.05 -28,-4.54 -40.64,-4.54 -9.72,0 -21.78,1.43 -36.16,4.34 -14.39,2.92 -27.09,8.81 -38.24,17.63 -9.01,7 -13.48,13.22 -13.48,18.6 0,3.43 2.79,6.48 8.36,9.14 7.45,3.69 19.11,5.51 35.11,5.51l0.01 0.01z"/>
 </g>
</svg>
