<?xml version="1.0" encoding="UTF-8"?>
<!DOCTYPE svg PUBLIC "-//W3C//DTD SVG 1.1//EN" "http://www.w3.org/Graphics/SVG/1.1/DTD/svg11.dtd">
<!-- Creator: CorelDRAW 2019 (64-Bit) -->
<svg xmlns="http://www.w3.org/2000/svg" xml:space="preserve" width="1.9685in" height="1.37795in" version="1.1" style="shape-rendering:geometricPrecision; text-rendering:geometricPrecision; image-rendering:optimizeQuality; fill-rule:evenodd; clip-rule:evenodd"
viewBox="0 0 1968.5 1377.95"
 xmlns:xlink="http://www.w3.org/1999/xlink">
 <defs>
  <style type="text/css">
   <![CDATA[
    .fil0 {fill:#FEFEFE}
   ]]>
  </style>
 </defs>
 <g id="Capa_x0020_1">
  <metadata id="CorelCorpID_0Corel-Layer"/>
  <path class="fil0" d="M1036.49 1026.49c0.14,0.3 79.29,55.76 87.62,61.65 28.53,20.09 21.5,11.49 3.31,37.43 -12.08,17.21 -21.37,27.3 -24.57,49.52 -4.38,30.58 3.86,24.02 -24.94,48.1 -15.91,13.3 -41.15,18.48 -40.61,-10.95 0.67,-36.25 65.57,-67.29 55.79,-84.26 -8.3,-14.38 -55.01,-60.26 -69.78,-80.19 -34.8,-46.92 -44.07,-45.01 -22.98,-99.44 13.81,-35.67 28.49,-71 43.35,-106.25 27.33,-64.86 16.97,-51.61 67.64,-15.06 35.06,25.3 75.41,33.97 54.29,78.8 -17.63,37.41 -58.79,60.78 -30.59,92.71 24.3,27.52 38.83,54.81 67.67,81.52 15.02,13.91 34.65,22.35 17.71,41.63 -13.81,15.74 -20.7,23.5 -36.33,37.83 -12.37,11.35 -27.78,32.7 -47.3,26.14 -24.43,-8.22 0.13,-33.92 8.17,-44.94 37.77,-51.82 50.41,-35.15 -7.18,-73.43 -14.62,-9.72 -27.62,-20.84 -43.3,-30.81 -19.74,-12.53 -36.28,-16.1 -29.24,-40.11 3.55,-12.08 41.02,-122.37 8.07,-109.2l-2.33 -0.61 -34.42 139.85 -0.05 0.06zm231.99 148.22c2.89,13.52 14.81,7.44 25.69,5.25 12.53,-2.52 16.55,-3.27 27.89,-9.18 3.13,-19.57 -13.72,-10.56 -24.13,-7.28 -6.38,2 -25.85,7.11 -29.45,11.21l0 0zm-670.22 2.49c-5.11,3.06 -13.16,16.36 -17.87,21.89 -3.39,3.98 -8.97,7.57 -7.72,12.17 1.51,5.51 10.57,5.44 15,4.54 7.56,-1.53 13.54,-14.48 18.55,-20.79 9.99,-12.59 1.15,-23.28 -7.94,-17.8l-0.02 0zm-54.85 -10.73c-6.54,-9.69 -19.93,-9.5 -25.94,0.71 -6.44,10.94 -18.58,9.62 -14.41,24.56 4.22,15.13 14.85,0.78 21.31,-4.47 5.15,-4.19 17.06,-14.9 19.03,-20.8l0.01 0zm-150.11 17.47c-3.04,1.49 -20.38,14.2 -23.05,16.64 -6.63,6.08 -4,24.01 14.08,18.58 5.06,-1.51 15.61,-13.97 20.72,-18.51 11.89,-10.52 -3.3,-20.86 -11.77,-16.7l0.02 0zm883.34 -51.58c-7.44,2.87 -23.34,10.38 -30.28,14.29 -13.17,7.41 -8.54,28.58 8.34,20.25 9.67,-4.76 18.92,-10.56 27.71,-16.57 4.43,-3.02 12.08,-5.44 9.35,-12.11 -1.68,-4.12 -10.31,-7.72 -15.13,-5.86zm-901.2 15.8c-2.48,1.23 -23.38,18.51 -24.94,20.66 -5.7,7.82 -5.11,28.65 14.5,14.52 4.52,-3.25 9.98,-5.42 13.84,-8.85 4.02,-3.58 7.59,-7.47 11.78,-10.97 16.26,-13.51 -8.03,-18.93 -15.17,-15.35zm568.93 -517.85c-16.26,10.27 -15.77,65.92 4.99,51.87 4.54,-3.08 3.89,-10.97 4.64,-16.06 0.16,-1.04 8.4,-26.47 6.76,-32.87 -1.48,-5.8 -12.65,-5.32 -16.41,-2.96l0.02 0.02zm-116.54 515.9c-3.79,2.9 -5.98,12.01 -8.6,16.8 -6.36,11.54 -19.99,22.25 -18.48,31.81 1.07,6.76 11.94,8.88 16.8,5.98 1.53,-0.93 28.77,-38.73 25.92,-48.41 -1.49,-5.08 -10.34,-10.19 -15.63,-6.15l-0.01 -0.02zm922.64 -92.64c13.39,3.25 24.6,-10.46 35.74,-17.56 6.92,-4.41 29.78,-22.25 17.09,-29.45 -8.5,-4.83 -35.34,21.85 -48.87,28.81 -8.31,4.26 -10.6,10.05 -3.96,18.2zm-1257.07 -619.86c-15.89,3.77 -8.26,18.22 -5.44,31.29 1.35,6.24 1.77,35.83 15.04,21.73 11.14,-11.87 15.42,-11.5 10.01,-29.95 -2.22,-7.54 -10.36,-25.26 -19.61,-23.07zm296.88 709.65c-8.05,4.02 -12.71,24.11 -17.42,33.03 -2.9,5.51 -8.22,10.81 -7.76,17.3 0.61,8.54 10.11,10.2 15.61,6.12 4.19,-3.13 15.93,-25.15 19.22,-30.94 2.7,-4.71 7.77,-12.64 6.96,-18.05 -0.94,-6.12 -11.87,-9.84 -16.62,-7.48l0 0.02zm-217.38 19.44c-2.28,1.34 -25.26,22.98 -28.69,26.43 -2.05,2.07 -14.81,12.81 -14.84,12.85 -5.76,8.61 4.05,13.23 12.06,12.78 13.89,-0.78 35.87,-28.85 41.41,-40.8 2.87,-6.19 -3.46,-15.06 -9.96,-11.24l0.02 -0.01zm175.72 -14.52c-6.59,3.16 -16.74,20.95 -21.26,27.95 -8.24,12.74 -6.5,38.12 10.08,26.85 6.66,-4.52 26.56,-43.17 26.28,-47.68 -0.33,-5.32 -11.33,-8.94 -15.09,-7.13l-0.01 0zm-356.98 -728.86c-9.16,4.67 4.52,29.74 7.25,37.83 3.5,10.33 6.75,36 21.16,22.96 12.3,-11.13 3.5,-24.34 -1.39,-36.66 -3.7,-9.37 -12.65,-31.43 -27.04,-24.11l0.02 -0.01zm-265.85 666.36c-8.88,1.22 -33.38,6.41 -23.69,21.22 4.22,6.47 35.98,1.76 44.5,0.91 49.32,-4.92 22.95,-28.1 -20.81,-22.13zm1287.25 -291.7c-9.75,4.48 -22.72,13.04 -33.15,18.44 -18.7,9.7 -14.59,29.76 1.34,26.75 41.86,-7.93 57.7,-57.07 31.81,-45.2zm-1275.81 375.15c-7.84,1.44 -38.04,3.37 -42.19,6.05 -11.18,7.21 -5.01,24.2 17.3,22.88 64.25,-3.83 47.41,-33.1 24.88,-28.93l0.02 0zm844.57 -530.51c-11.46,4.42 -40.09,78.98 -11.75,72.67 8.08,-1.81 42.39,-84.47 11.75,-72.67zm353.38 341.6c-13.59,4.29 -25.33,13.74 -42.11,18.16 -29.87,7.91 -23.41,25.21 -3.27,24.77 13.91,-0.3 31.46,-10.45 43.91,-16.5 30.77,-14.95 9.63,-29.01 1.48,-26.44l-0.01 0zm-772.46 9.13c17.13,10.05 86.35,-21.76 74.59,-37.46 -8.59,-11.47 -32.11,5.42 -42.2,9.49 -14.94,6.05 -40.92,7.04 -32.39,27.97zm1309.59 -601.94c35.17,28.93 17.89,-51.26 -2.48,-71.83 -5.91,-5.96 -18.17,-4.69 -19.82,1.83 -1.28,5.13 6.33,15.56 8.89,21.19 10.01,22.08 7.79,33.12 13.42,48.81zm-1277.95 468.93c-14.03,6.41 -26.67,14.3 -41.04,20.24 -42.11,17.39 -3.83,45.55 42.63,5.53 4.9,-4.22 14.93,-9.91 15.4,-15.25 0.62,-7.34 -10.08,-13.66 -16.99,-10.52l0.01 0zm1148.11 89.89c-8.47,3.28 -28.15,20.7 -40.24,27.33 -30.04,16.48 -22.83,36.49 -4.76,30.11 8.69,-3.08 31.57,-20.7 40.37,-26.85 18.55,-12.98 29.27,-40.09 4.64,-30.56l0 -0.02zm-1572.38 181.4c-20.08,2.26 -36.73,2.29 -56.63,3.02 -16.43,0.59 -30.42,24.17 3.6,23.82 23.99,-0.25 31.22,0.1 55.28,-3.77 32.16,-5.18 7.41,-24.15 -2.24,-23.07zm674.11 -1007.12c5.08,5.91 95.14,55.72 83.53,19.67 -3.61,-11.2 -91.26,-57.4 -83.53,-19.67zm591.68 708.2c-7.37,2.45 -27.94,19.25 -39.91,24.93 -6.02,2.87 -18.11,6 -21.15,11.37 -5.79,10.14 0.13,19.31 12.71,17.8 58.3,-6.99 76.33,-63.43 48.35,-54.1l0.01 0zm-303.07 -417.26c-21.33,18.11 25.07,26.07 31.57,28.78 11.56,4.82 36.16,23.21 47.74,15.48 28.85,-19.28 -69.67,-52.43 -79.3,-44.26l-0 0zm217.94 604.75c-9.33,2.76 -20.11,20.69 -45.4,27.85 -37.41,10.59 -30.65,31.15 -2.7,24.89 64.02,-14.32 87.15,-64.3 48.1,-52.74zm-904.9 -524.7c42.04,36.42 14.17,-71.43 4.03,-85.27 -4.69,-6.43 -19.85,-12.3 -22.41,-1.49 -1.15,4.83 5.39,21.9 7.43,27.24 7.91,20.74 6.78,48.78 10.95,59.52zm726.85 -160.07c0.64,0.52 47,13.84 56.85,18.41 7.89,3.67 18.27,13.52 23.3,15.22 8.83,3.01 21.64,-4.87 14.07,-16.54 -13.52,-20.84 -110.46,-60.77 -94.2,-17.1l-0.01 0zm-546.31 566.49c-19.96,8.26 -28.14,15.51 -51.83,21.33 -8.67,2.12 -24.46,1.26 -29.43,7.7 -8.85,11.46 -1.57,20.22 10.91,20.96 72.93,4.41 100.57,-62.49 70.37,-50l-0.02 0zm151.11 -710.13c-13.2,3.76 -10.4,18.77 -2.96,24.06 6.1,4.33 21.59,1.13 33.46,5.98 15.33,6.28 38.44,27.31 53.54,21.21 41.6,-16.78 -67.54,-55.98 -84.06,-51.26l0.02 0.02zm697.93 -40.44c-24.74,15.39 20.67,28.72 33.8,37.5 14.2,9.49 36.71,37.95 49.7,31.83 33.9,-15.97 -65.36,-80.61 -83.51,-69.33l0.02 0zm-1178.03 -59.23c-47.2,13.49 -124.56,115 -77.83,93.7 0.8,-0.37 44.24,-41.65 52.71,-48.09 10.19,-7.74 19.97,-12.95 30.61,-19.54 13.63,-8.47 12.59,-31.24 -5.5,-26.08l0 0zm798.17 277.5c0.8,0.8 66.2,18.43 80,25.04 10.24,4.9 24.59,12.27 33.28,19.31 15.33,12.37 32,2.87 25.94,-8.92 -14.24,-27.59 -161.26,-77.64 -139.23,-35.44l0.01 0.01zm691.48 591.91c-3.77,1.35 -53.24,40.21 -62.51,46.64 -10.59,7.34 -23.14,12.87 -32.93,20.84 -12.1,9.86 -21.92,29.78 -0.36,28.07 15.4,-1.23 80.67,-51.23 95,-67.4 4.74,-5.34 25.19,-36.93 0.81,-28.17l-0.02 0.01zm-395.33 -737.16c-27.28,13.91 37.4,37.51 49.37,45.81 13.26,9.16 44.76,48.28 60.01,39.78 31.64,-17.67 -85.51,-97.75 -109.38,-85.56l0 -0.02zm-1004.15 -73.4c-22.79,3.87 -57.52,29.48 -75.36,44.66 -12.98,11.04 -19.63,16.17 -28.98,30.87 -4.97,7.8 -21.99,42.17 3.61,33.83 6.43,-2.1 39.74,-51.77 57.84,-62.1 14.97,-8.56 27.28,-11.21 42.04,-17.73 20.69,-9.17 18.29,-32.48 0.87,-29.52l-0.02 -0.01zm350.29 -16.34c-15.74,7.2 -11.2,27.71 21.21,25.8 16.17,-0.96 40.46,1.25 55.77,6.66 21.14,7.46 67.99,44.31 82.55,36.41 44.87,-24.43 -125.48,-84.44 -159.55,-68.86l0.02 0zm625.19 21.63c-28.09,17.42 31.13,27.3 37.48,30.06 18.44,8.05 33.55,14.33 49.79,26.75 14.95,11.46 28.84,20.38 43.67,32.83 10.04,8.41 31.81,34.49 44.94,25.36 33.64,-23.4 -143.96,-134.78 -175.87,-114.99l0 -0.01zm-1003.09 -49.39c-27.87,9.94 -70.21,39.5 -92.01,60.01 -8.07,7.6 -80.06,103.63 -30.75,89.23 1.57,-0.45 51.26,-73.85 66.74,-85.5 15.61,-11.77 32.63,-17.81 48.69,-27.81 28.62,-17.8 29,-43.67 7.34,-35.93l-0.01 0zm1078.45 438.23c-2.59,-7.6 -31.03,-59.66 -36.54,-68.34 -11.5,-18.11 -18.03,-14.41 -37.86,-14.65 -11.3,-0.14 -42.19,-2.67 -50.97,-0.76 -7.59,8.17 -16.13,32.41 -37.13,19.64 -10.97,-6.66 -14.39,-34.23 -5.15,-44.05 14.69,-15.59 72.99,-21.19 94.85,-25.88 37.58,-8.07 100.31,86.41 128.59,110.42l1.25 3.15c30.75,23.83 15.49,36.76 34.71,55.83 12.94,12.85 44.91,32.87 63.7,21.87 22.56,-22.02 -33.96,-23.73 -42.92,-36.68 -12.45,-18 -6.33,-50.96 16.7,-58.81 95.63,-32.65 74.55,78.39 80.89,86.8 26.58,16.44 25.68,-25.47 26.2,-39.48 1.48,-40.38 -11.81,-31.13 -20.02,-50.17 6.05,-19.21 92.48,-70.09 88.33,-101.75 -9.42,-15.49 -108.55,-55.82 -131.68,-70.48 -33.9,-21.47 -23.72,-28.94 0.29,-58.62 7.82,-9.69 23.8,-16.22 32.61,-4.26 11.56,15.65 -3.72,27.01 -2.74,38.56l168.17 108.67 -1.36 2.14c-0.61,9.04 -59.43,72.56 -70.01,83.39 -38.35,39.27 -58.18,36.99 -45.44,98.2 21.04,101.02 21.93,156.72 -26.91,250.22 -17.65,33.78 -34.42,68.32 -52.57,101.79 -29.29,54.06 -42.24,48.33 -13.3,102.67 10.36,19.42 54.6,83.93 38.41,101.47 -12.98,14.06 -81.13,64.29 -96.39,42.57 -10.1,-25.59 46.26,-47.09 60.82,-56.22 0,-18.93 -32.26,-43.5 -45.69,-56.8 -23.5,-23.3 -43.18,-26.33 -31.62,-57.76 7.63,-20.72 58.15,-138.27 48.19,-150.02 -19.47,-13.02 -36.79,46.13 -40.61,59.52 -5.69,19.83 -19.71,54.78 -27.54,75.5 -17.54,46.5 -20.24,38.7 12.81,67.29 6.86,5.94 49.21,46.97 51.64,51.71 -5.82,9.01 -33.86,20.31 -50.99,48.76 -11.26,18.72 4.44,17.65 -23.83,25.45 -11.39,3.15 -29.97,5.98 -41.76,6.76 -21.5,1.42 -77.23,-8.11 -34.54,-34.25 17,-10.43 52.51,-20.34 63.64,-34.77 -1.86,-15.32 -31.2,-57.31 -42.26,-70.44 -16.11,-19.1 7.44,-58.91 15.72,-80.28 20.37,-52.63 39.85,-110.59 61.81,-161.78 10.24,-23.81 25.33,-55.09 33.52,-78.61 14.22,-40.8 6.97,-36.61 -18.41,-73.4 -29.71,-43.06 -65.81,-87.53 -91.67,-131.82l-2.99 -2.31 0 -0.02zm62.44 -48.61c-22.15,-30.65 -65.81,-68.27 -92.95,-97.54 -22.06,-23.8 -44.4,-10.13 -74.68,-5.76 -15.04,2.17 -63.64,13.65 -74.82,21.83 -43.39,31.74 1.13,118.85 52.69,84.96 14.62,-9.6 6.38,-18.38 29.85,-18.31 12.74,0.04 32.41,-2.8 40.26,8.57 12.01,17.38 18.72,43.02 34.1,61.49 16.41,35.53 67.44,95.3 91.91,131.79 23.5,35.06 34.15,33.58 16.38,72.02 -12.1,26.24 -21.67,52.17 -32.74,78.61 -21.89,52.29 -42.05,107 -62.33,160.03 -6.67,17.48 -33.13,65.19 -20.18,78.85 8.66,9.11 44.1,56.18 44.92,65.8 -29.69,14.52 -49.06,12.85 -71.05,44.61 -3.16,4.57 -7.44,7.72 -12.46,9.84 0.68,1.43 1.32,2.89 1.94,4.37 2.09,4.96 9.27,13.14 16.35,25.75l40.09 11.04 0.07 0.87c10.26,-1.98 20.76,-2.5 31.17,-1.57 18.77,-5.06 68.04,-14.62 82.28,-10.34 25.1,7.53 60.58,-12.53 81.18,-26.28 1.55,-1.04 4.61,-2 8.85,-2.87 10.43,-14.67 23.92,-26.53 40,-34.64 -1.11,-33.61 -42.19,-100.76 -56.95,-128.33 -12.42,-23.18 8.5,-45.13 20.46,-68.32 11.46,-22.24 22.04,-45.74 33.46,-68.09 22.37,-43.76 46.85,-99.18 57.49,-146.96 20.48,-91.98 -10.78,-148.41 -9.3,-180.69 0.62,-13.61 79.25,-94.46 94.2,-109.97 19,-19.7 41.62,-40.83 13.56,-61.28 -33.8,-24.62 -88.17,-55.96 -125.46,-79.03 -56.29,-34.84 -7.01,-33.92 -36.11,-63.12 -46.46,-46.65 -107.39,34.22 -103.07,72.94l152.02 86.92 -77.94 73.3c-26.24,-3.13 -26.02,-18.38 -67.13,-8.63 -23.64,5.6 -40.47,31.45 -46.43,37.34l-19.64 -19.16 0.01 -0.05zm-746.48 610.18l-104.28 36.98 -1.96 -5.88c-12.85,-16.31 53.09,-44.66 59.59,-54.89 8.59,-13.55 -0.65,-91.79 -2.07,-112.22 -5.18,-74.02 -11.69,-152.43 -13.84,-226.25 -1.19,-40.66 2.96,-193.73 -24.01,-216.14 -40.66,-33.8 -90.24,-76.61 -129.55,-111.99 -29.46,-26.51 -103.72,-93.75 -140.04,-100.09 -50.26,-8.8 -28.49,-61.42 6.21,-50.73 25.19,7.75 51.79,31.72 72.53,48.36 44.33,35.54 89.37,70.53 130.69,109.59 10.95,10.34 20.34,18.34 31.99,27.81 9.23,7.51 12.98,26.86 22.02,38.96 9.81,13.13 66.09,60.26 71.85,29.05 -0.77,-8.95 -118.92,-57.49 -10.81,-101.98 44.07,-18.13 120.8,23.99 82.89,87.81 -15.33,25.81 26.18,27.57 33.5,-23.85 5.08,-35.74 -11.14,-45.58 10.2,-80.42 24.44,-39.86 48.03,-92.22 75.41,-129.46 20.15,-27.39 66.7,-99.54 101.83,-101.89 29.74,-2 41.02,31.39 1.77,46.76 -32.13,12.59 -32.09,24.76 -50.12,51.23 -27.43,40.28 -50.92,84.89 -76.72,126.57 -13.35,21.56 -23.49,43.76 -35.54,65.8 -17.41,31.81 -22.32,39.57 -4.03,72.77 29.62,53.8 38.16,298.55 38.24,368.42 0.04,33.17 -1.11,67.4 -0.42,100.34 0.54,24.96 -12.1,71.81 8.47,85.02 16.07,10.34 59.4,14.36 51.18,47.83 -6.52,26.53 -57.49,8.67 -73.85,0.49 -40.95,-20.53 -43.43,-12.57 -43.75,-57.91 -0.23,-31.13 -1.07,-67.87 -3.74,-98.74 -1.91,-22.35 -11.85,-174.01 -21.4,-178.67 -3.98,-1.93 -39.09,-3.53 -46.74,-3.89 -27.94,-1.34 -24.69,-7.18 -26.51,22.8 -2.22,36.44 -1.6,60.94 0.73,97.09 1.46,22.54 12.81,183.72 10.28,191.35l-0.02 -0.03zm-102.9 -676.1c-53.8,-43.02 -104.79,-92.33 -160.16,-135.96 -22.18,-17.48 -64.35,-55.82 -91.85,-56.15 -49.98,-0.61 -68.13,56.2 -37.17,83.63 13.68,12.11 33.58,16.39 49.58,24.56 25.54,13.04 174.03,142.38 203.46,168.33 52.1,45.96 45.11,25.68 48.26,98.55 4.07,94.61 8.52,188.7 14.48,283.22 2.97,46.85 7.02,94 9.77,140.64 3.35,56.89 -42.09,45.39 -66.87,81.72 -33.1,48.5 36.35,50.73 72.65,36.79 18,-6.92 36.12,-13.23 54.24,-19.87 32.1,-11.75 31.84,-8.03 30.04,-40.19 -2.17,-38.98 -20.27,-260.67 -12.27,-279.29 31.66,-10.56 35.83,19.09 39.25,43.46 3.48,24.81 3.86,52.06 6.89,77.94 6.15,52.97 -0.25,117.88 6.15,163.8 5.04,36.22 66.58,64.06 99.42,70.23 65.93,12.37 99.16,-35.98 58.81,-75.72 -14.83,-14.6 -38.89,-13.96 -49.54,-32.89 -10.07,-17.87 -2.22,-55.73 -1.52,-76.59 1.8,-51.89 -0.19,-115.9 -2.35,-168.2 -3.96,-95.22 -11.24,-210.55 -40.37,-300.76 -16.67,-51.61 76.26,-170.5 103.89,-218.34 32.78,-56.81 67.64,-59.97 83.87,-86.92 27.88,-46.2 -15.89,-88.68 -67.82,-65.26 -50.52,22.77 -117.57,143.07 -147.76,192.52 -33.74,55.27 -12.62,79.48 -77.67,55.27 -44.07,-16.39 -95.19,0.59 -125.39,35.48l-0.01 0zm1167.8 614.49l-3.58 3.93 2.21 -1.09 1.37 -2.83 -0.01 0zm-1677.52 193.9c7.63,-1.63 14.11,-4.76 18.35,-10.24 11.16,-14.39 33.93,-49.28 41.98,-65.47 14.97,-30.07 29.68,-42.94 2.1,-69.4 -15.71,-15.07 -37.25,-42.21 -47.89,-61.16 -41.57,-74.11 -20.43,-107.37 -19.67,-183.11 0.73,-71.34 -0.09,-142.8 -0.1,-214.17 -0.04,-68.82 -8.64,-133.72 -13.72,-202.16 -1.77,-23.94 -1.3,-73.5 -20.13,-87.18 -72.27,-52.48 -3.5,-110.68 39.3,-115.17 37.72,-3.95 45.5,23.38 52.38,53.39 5.44,23.78 25.37,189.36 25.98,190.25 30.02,-2.47 49.02,-27.61 102.77,-19.99 37.98,5.39 54.54,29.92 60.91,65.52 3.87,21.63 17.93,20.44 40.17,23.49 61.19,8.36 102.19,8.14 166.7,23.28 4.35,58.39 -6.76,86.35 -13.46,139.75 -2.94,23.36 20.96,23.85 34.94,40.91 12.36,15.09 17.38,40.38 -2.51,51.93 -19.9,11.56 -114.79,4.47 -126.19,-16.41 -15.23,-27.87 16.13,-109.85 10.17,-132.08 -12.78,-1.23 -82.99,-9.33 -89.79,-7.89l0.47 199.88c9.33,3.65 58.69,6.6 71.26,6.44 32.7,-0.4 23.14,24.95 23.89,53.96 0.45,17.9 -0.67,144.26 0.71,147.54 14.36,4.96 111.43,-2.93 91.07,59.26 -9.43,28.81 -73.71,46.88 -101.11,55.43 -22.25,6.93 -43.06,10.45 -65.61,4.19 -20.92,-5.79 -14.29,-44.23 -15.8,-62.11 -1.34,-15.74 -17.84,-126.43 -22.65,-133.84l-100.57 18.9c0.3,9.21 27.63,43.65 35.09,51.28 9.24,9.47 43.14,32.32 37.24,45.2 -9.94,21.66 -65.87,88.4 -70.28,103.56l41.04 46.81 -2.57 2.17c12.87,0.26 25.89,0.07 38.98,-0.4 -16.72,10.29 -29.22,23.56 -37.83,38.37l-6.92 2.04 -1.22 -4.18c-11.92,19.9 -0.16,21.12 -33.57,21.66 -23.41,0.38 -27.83,-6.93 -40.97,-9.35 -8.35,-4.1 -17.51,-7.28 -27.49,-9.31 -7.44,-1.51 -12.81,-2.31 -17.73,-2.73l-23.54 -6.4c-0.19,1.63 -0.37,3.65 -0.56,5.79 -5.65,-1.7 -12.01,-14.67 -15.21,-18.93 -5.63,-7.53 -11.72,-13.84 -18.43,-19.3l-0 0zm851.46 -19.12c18.48,-1.06 16.31,-3.87 24.7,-22.93 14.36,-32.59 34.61,-38.53 46.81,-58.18 -1.81,-7.6 -53.85,-62.46 -63.83,-75.5 -24.41,-31.87 -50.41,-51.83 -34.82,-89.39 10.26,-24.69 79.29,-190.61 73.92,-202.94 -13.16,-30.14 -54.98,-41.86 -32.74,-98.81 15.87,-40.63 -0.83,-19.09 -7.54,-45.3 -3.96,-15.51 -3.03,-47.72 5.54,-62.01 20.7,-34.52 55.28,-49.46 95.09,-44.81 39.72,4.64 59.8,31.57 79.55,61.59 19.18,-3.96 50.66,-18.68 72.89,-24.96 33.28,-9.41 48.66,-24.11 70.58,2.28 14.46,17.42 66.37,121.53 72.47,126 24.93,6.85 64.89,-2.59 42.46,42.94 -5.16,10.5 -44.9,44.69 -56.2,44.24 -26.5,-1.06 -87.88,-90.83 -106.59,-95.65l2.96 0.62 -30.98 145.85 -4.76 0.04 79.7 53.54c7.91,93.33 -93.98,142.01 -91.53,35.6l-30.22 -18.51 -48.22 86.52 -2.63 -1.46c2.54,16.48 78.49,94.99 94.67,110.02 26.41,24.53 10.1,34.41 -12.07,58.67 -6.86,7.53 -52.4,47.51 -52.57,50.31l3 0.02c-9.94,4.64 -19.24,10.78 -27.56,18.32l-23.28 5.15c-23.14,5.96 -41.55,17.93 -55.06,33.32 -7.7,4.45 -18.22,6.89 -35.22,3.35 -11.42,-2.38 -21.59,-9.69 -34.18,-13.74 -3.81,-8.66 -8.6,-16.84 -14.43,-24.18l0.04 -0.04zm98.88 -504.69c-11.56,23.52 99.7,105.98 121.46,118.64 24.88,14.48 48.52,33.07 73.88,48.03 27.07,16 -2.93,83.86 -29.05,67.45 -15.09,-9.47 2.8,-38.35 -1.54,-47.65 -2.83,-6.07 -28.33,-20.67 -35.43,-25.47 -48.17,-32.52 -194.65,-122.23 -189.69,-174.46 6.35,-67.02 56.83,-30.61 68.76,-53.96 17.61,-34.45 -71.54,12.36 -77.9,-35.38 -9.53,-71.4 100.11,-99.35 127.81,-26.37 15.83,41.7 38.21,19.71 75.32,4.47 16.74,-6.88 30.17,-8.98 46.68,-14.2 23.35,-7.37 25.8,-12.98 37.83,10.08 13.39,25.69 31.68,48.67 45.15,76.77 39.3,81.97 34.04,26.79 62.81,48.38 3.89,11.69 -19.14,32.65 -30.13,35.81 -9.31,2.69 -31.03,-19.75 -37.95,-27.43 -21.09,-23.49 -43.43,-46.03 -63.9,-68.8 -52.5,-58.41 -32.59,18.67 -36.91,51.45 -2.83,21.45 -15.16,88.37 -29.39,102.98 -25.8,0.02 -106.72,-102.69 -127.83,-90.36l0.02 0.01zm-841.35 -123.98c0.25,-7.37 -14.44,-9.72 -22.32,-15.61 -16.38,-12.27 -24.94,-35.22 -14.39,-53.65 17.73,-31.01 76.96,-50.95 109.22,-35.2 64.61,31.55 15.83,80.97 26.07,104.27 22.11,10.1 30.07,-21.35 37.32,-27.59l179.73 22.39 -0.43 3.54c2.89,21.02 -4.67,86.24 -9.67,108.49 -15.45,68.86 47.06,47.17 31.03,77.97l-0.5 5.18 -84.87 -8.3c2.42,-9.09 15.8,-121.34 18.2,-140.34l-2.48 -2.89 -132.9 -13.66 -0.37 3.58c-4.59,8.36 -6.05,149.09 -5.89,169.2 0.12,16.06 -2.48,70.25 11.17,76.58 12.22,5.67 70.53,3.68 78.65,8.53l3.01 -0.12 8.89 204.11 3.13 -0.14c9.02,5.02 41.88,-6.61 63.09,1.39 23.12,8.71 23.07,28.68 1.26,40 -20.22,10.5 -91.59,38.09 -109.45,24.18 -1.03,-1.65 -13.85,-122.14 -16.99,-138.56 -14.9,-78.04 -4.63,-62.29 -82.67,-45.62 -40.89,8.73 -124.14,-3.76 -82,47.7 6.38,7.79 68.54,85.69 68.56,85.77l-70.33 111.12c7.94,11.72 30.32,12.81 41.98,34.25 14.34,26.39 -9.72,35.73 -32.94,32.83 -19.99,-2.51 -39.13,-12.24 -57.02,-19.28 -29.8,-11.72 -30.26,-6.31 -10.01,-36.19 19.52,-28.82 43.82,-65.35 56.88,-97.44 9.06,-22.27 -40.82,-56.3 -59.61,-79.65 -26.62,-33.06 -43.91,-68.93 -39.98,-112.46 11.24,-124.04 5.37,-322.89 -0.62,-446.33 -0.96,-19.54 -5.96,-132.76 -10.07,-143.16 -7.98,-20.24 -39.24,-9.24 -42.91,-33.7 -3.23,-21.59 17.49,-35.44 36.47,-37.62 37.05,-4.22 41.37,77 46.07,103.59 3.67,20.76 14.98,120.44 10.85,135.73 -6.98,25.73 -16.41,29.43 -6.92,60.01 15.85,51.13 63.33,40.76 63.78,27.12l-0.02 -0.04z"/>
 </g>
</svg>
