<?xml version="1.0" encoding="UTF-8"?>
<!DOCTYPE svg PUBLIC "-//W3C//DTD SVG 1.1//EN" "http://www.w3.org/Graphics/SVG/1.1/DTD/svg11.dtd">
<!-- Creator: CorelDRAW 2019 (64-Bit) -->
<svg xmlns="http://www.w3.org/2000/svg" xml:space="preserve" width="3.93701in" height="3.93701in" version="1.1" style="shape-rendering:geometricPrecision; text-rendering:geometricPrecision; image-rendering:optimizeQuality; fill-rule:evenodd; clip-rule:evenodd"
viewBox="0 0 3937.01 3937.01"
 xmlns:xlink="http://www.w3.org/1999/xlink">
 <defs>
  <style type="text/css">
   <![CDATA[
    .fil0 {fill:#373435}
   ]]>
  </style>
 </defs>
 <g id="Capa_x0020_1">
  <metadata id="CorelCorpID_0Corel-Layer"/>
  <path class="fil0" d="M1174.59 614.26c-7.26,-57.87 -0.1,-169.28 -27.13,-211.1 -23.9,44.54 -40.57,113.08 -63.61,161.79 -35.18,74.38 -122.64,214.61 -169.32,285.36 -62.59,94.87 -17.38,48.78 -137.52,89.99 -286.37,98.25 -315.33,267.52 -508.26,401.16 10.43,7.98 -14.75,-1.73 15.49,8.55 46.09,15.67 136.81,-2.94 180.59,-15.02 63.02,-17.39 120.06,-46.15 176.2,-61.2 -41.46,100.74 -70.44,126.57 -93.79,260.66 -15.19,87.28 -24.93,240.94 8.73,318.24 5.93,-57.54 19.04,-104.92 46.99,-146.28 20.86,-30.87 60.1,-82.55 103.07,-89.57 4.56,45 -18.39,73.2 2.12,108.43 18.44,31.67 36.17,29.13 67.98,50.6 -165.85,159.38 -319.11,290.49 -294.52,657.02 37.69,561.67 530.52,643.74 546.94,655.64 6.41,4.64 73.78,134.74 85.37,154.52 40.51,69.09 93.57,148.35 145.23,211.33 61.41,74.87 68.9,71.11 115.59,124.04 41.44,46.98 150.48,121.29 207.77,154.83 236.7,138.56 519.24,158.26 774.47,52.88 268.65,-110.92 463.44,-353.3 584.15,-614.26 59.92,-129.53 9.87,-80.37 123.81,-121.91 228.17,-83.19 389.24,-252.57 442.68,-522.05 40.24,-202.92 8.19,-414.55 -97.06,-585.9 -17.17,-27.95 -33.59,-46.8 -52.26,-70.58 -76.54,-97.53 -62.32,8.24 -53.8,-250.95 84.73,39.56 126.53,118.2 151.35,231.89 10.73,-9.38 13.16,-13.75 20.04,-38.69 29.67,-107.56 54.46,-269.56 21.59,-370.27 -42.5,-130.21 -128.9,-211.21 -203.74,-279.32 78.76,19.22 217.66,91.78 374.54,116.1 -13.42,-18.89 -28.34,-25.11 -45.28,-42.29 -15.85,-16.09 -26.44,-30.04 -41.1,-44.88 -14.52,-14.69 -30.53,-26.07 -44.56,-41.31 -16.03,-17.41 -25.8,-32.76 -42.36,-50.03 -60.03,-62.63 -119.42,-154.59 -156.59,-193.65 -92.13,-96.81 -295.21,-190.13 -476.46,-224.11 20.15,-95.08 205.39,-154.97 323.47,-169.19 -9.93,-11.63 -1.09,-4.35 -16.41,-14.53 -87.11,-57.87 -288.56,-71.69 -395.9,-58.85 -183.17,21.91 -228.8,60.34 -372.83,114.14 -3.87,-113.43 54.79,-196.73 114.79,-267.8l120.56 -114.69c-255.63,-7.39 -494.84,146.78 -625.05,257.52 23.02,-39.65 45.87,-99.71 53.8,-156.5 7.51,-53.72 14.37,-150.12 -13.54,-190.25 -62.41,85.61 -81.89,116.3 -169.75,178.43 -65.22,46.11 -149.64,88.43 -236.14,120.26 -185.64,68.31 -374.56,97.94 -470.34,231.77zm1317.18 2551.91l-967.33 -1.88c29.98,83 134.14,202.09 183.46,240.81 75.39,59.19 165.22,120.74 299.96,123.39 182.13,3.58 316.24,-99.67 406.72,-225.55 25.12,-34.94 64.26,-93.48 77.19,-136.77zm-1354.76 -1341.08c-254.05,37.79 -468.19,262.55 -457.44,555.18 16.87,459.01 553.36,666.15 875.7,407.53 108.87,-87.34 195.19,-131.74 348.34,-155.38 169.91,-26.22 287.05,6.19 420.37,70.5 111.28,53.68 151.79,138.5 322.79,181.61 472.2,119.03 811.43,-373.79 628.11,-751.3 -57,-117.38 -133.53,-198.93 -247.7,-256.59 -154.81,-78.19 -250.19,-65.87 -421.82,-30.67 -38.14,7.82 -939.06,2.33 -1003.16,2.33 -78.68,-0 -166.25,8.18 -237.19,-11.39 -75.05,-20.69 -150.08,-23.42 -228.02,-11.83zm37.87 457.52l-199.48 0 -1.38 164.13 201.1 0 0.26 198.85 160.22 1.51c10.66,-33.97 4.06,-154.07 4.37,-197.98l199.86 -2.55 0.72 -163.94 -200.55 -0.39c-0.43,-47.55 7.03,-163.88 -4.44,-199.83l-158.65 0.24 -2.03 199.97zm1707.46 -1.55c-59.84,26.57 -70.62,80.5 -51.91,124.58 16.25,38.3 68.05,71 124.07,48.29 112.83,-45.73 43.82,-224.37 -72.16,-172.87zm-172.97 -197.53c-120.39,38.54 -61.54,212.54 54.1,179.49 121.93,-34.85 67.13,-218.29 -54.1,-179.49zm9.11 385.09c-120.42,25.95 -86.61,206.31 36.73,185.1 46.96,-8.08 85.95,-55.39 74.95,-112.6 -8.4,-43.65 -57.31,-84.22 -111.68,-72.5zm-225.42 -188.87c-117.89,46.69 -46.33,218.81 69.17,175.26 102.88,-38.81 55.6,-224.66 -69.17,-175.26z"/>
 </g>
</svg>
